<?xml version="1.0" encoding="UTF-8"?>
<svg version="1.1" viewBox="0 0 2048 733" width="1280" height="1280" xmlns="http://www.w3.org/2000/svg">
<path transform="translate(381,13)" d="m0 0 2 1 19 59 16 50 20 62 18 56 13 41v3l53-1v-36l5-1 1 1v445h-5l-1-6v-32l-11-9-17-12-38-28-18-13-19-14-36-26-4-1-18 13-19 14-21 16-14 10-20 15-129 95-6 4 1-6 12-36 25-76 14-43 29-87 6-19v-6l-19-13-15-11-18-13-20-14-34-24-36-26-19-13-15-11-17-12-18-13-17-12v-2h285l42-133 20-63 15-48z" fill="#D8575B"/>
<path transform="translate(526,281)" d="m0 0h1v412h-4l-1-6v-32l-11-9-17-12-38-28-18-13-19-14-36-26-4-1-18 13-19 14-21 16-14 10-20 15-129 95-6 4 1-6 12-36 25-76 13-40h2l1-4 10 1 6-2 13-2 40-8 28-8 28-11 15-7 12-7 11-7 14-10 14-11 10-9 6-5h2v-2h2l1-3 6-5 1-2h2v-2h2l2-4 8-8 8-11h2l2-4 13-19 10-16 7-12 11-23 9-24 7-22 6-27h5z" fill="#C43137"/>
<path transform="translate(11,282)" d="m0 0 48 1 169 1 15 1 3 2v5l11 4v2l7 2 4 4-1 11 1 5-1 10-2 4h-2v2l-4 4-3 5-14 11-6 7h-2l-2 4-3 3-14 9h-2v2h-2l-2 5-12 9-1 2 2 1-2 4-12 2-6-3-7-3-18-13-20-14-36-26-19-13-15-11-17-12-18-13-17-12z" fill="#C43137"/>
<path transform="translate(553,282)" d="m0 0h118l14 3 10 5 5 4 6 9 3 8v18l-3 9-9 10-6 3 13 10 6 10 2 7v15l-3 11-6 10-8 8-10 5-12 3h-120l-1-147zm25 25v98h84l13-3 6-4 4-4 1-3v-13l-4-7-6-4-10-2h-68v-21h72l9-4 4-6 1-11-2-7-7-6-6-2-8-1z" fill="#1A4493"/>
<path transform="translate(381,13)" d="m0 0 2 1 19 59 16 50 13 41-1 4 3 13v12l-2 5-3 3h-3l-2 6-8 7h-3v2l-5 2-5 3-7 1v2l-7 3-9 7-6 7-3 5h-2v2l-7 4-5 1v3h-2l-2 4-5 3-4-11v-41l1-20-4-4 2-18 1-11h-2l1 3h-2v2l-4-2 4-14 2-10 20-64 18-58z" fill="#C43137"/>
<path transform="translate(736,282)" d="m0 0h116l13 3 11 6 9 8 7 12 3 9 1 8v16l-2 11-7 14-7 8-11 7h-3l5 7 38 38v1h-35l-12-12-7-8-12-13-6-7-56-1-1-2v-20l1-1 70-1 8-3 6-5 4-8 1-4v-18l-4-9-4-5-9-4-5-1-87-1v123h-25l-1-1v-146z" fill="#1E4794"/>
<path transform="translate(1395,282)" d="m0 0h116v25l-110 1-9 3-4 5-2 7 1 10 4 6 4 3 3 1 80 1 14 2 14 7 7 8 4 10 2 12-1 15-4 11-6 8-8 7-10 4-9 2h-120v-25l116-1 9-3 5-5 3-9-1-10-4-6-5-3-10-2-79-1-12-3-11-7-7-8-5-11-1-5v-16l3-10 6-9 9-8 13-5z" fill="#C5343A"/>
<path transform="translate(1864,282)" d="m0 0h117l15 4 10 6 9 9 7 14 3 15v12l-3 14-7 14-9 9-11 6 6 7 36 36v2h-35l-7-7-7-8-11-12-7-8-5-5-55-1-1-1v-21l1-1 70-1 12-6 5-9 1-4v-20l-3-8-7-6-7-3-6-1-86-1v123h-25z" fill="#C5353B"/>
<path transform="translate(1191,280)" d="m0 0h7l6 4 10 9 87 87 8 7 1 1 1-107h24v142l-4 6-5 3-9-1-8-6-71-71-7-8-19-19-5-4-1 106-1 1h-23l-1-38v-24l1-80 5-6z" fill="#1C4693"/>
<path transform="translate(1745,280)" d="m0 0h8l5 3 7 10 17 28 19 32 17 28 12 20 13 21 4 8h-31l-17-29-4-7-18-1h-51v-4l9-16 1-1h45l-10-18-12-20-10-16-2-1-2 5-13 22-17 29-8 13-19 32-7 12h-29l2-5 15-25 17-28 19-32 17-28 15-25z" fill="#C5343A"/>
<path transform="translate(1009,280)" d="m0 0h7l5 3 7 9 17 29 17 28 18 30 17 28 13 21v2h-30l-6-9-13-22-4-6-69-1 6-12 6-8 44-1-9-16-14-23-8-13v-2h-3l-2 5-14 24-17 29-17 28-14 24-2 3h-29l4-8 14-23 9-15 19-32 13-21 19-32 9-14 4-4z" fill="#1A4593"/>
<path transform="translate(1533,282)" d="m0 0h139v24l-1 1h-56v123h-25l-1-9v-114h-56z" fill="#C5353B"/>
<path transform="translate(1129,282)" d="m0 0h25v148h-25l-1-7v-75z" fill="#194593"/>
<path transform="translate(1503,533)" d="m0 0h28l12 3 8 6 6 7 4 13v9l-2 13-6 10-8 7-10 4-7 1h-23l-11-3-8-5-6-7-4-8-2-9v-12l2-8 4-8 7-7 7-4zm2 11-10 3-6 5-5 10-1 4v8l4 10 4 5 10 5 10 1h10l13-1 8-4 7-8 2-5v-15l-4-8-5-5-8-4-5-1z" fill="#9B9B9B"/>
<path transform="translate(1649,533)" d="m0 0h46v10l-1 1-45 1-10 5-5 6-3 9v10l4 10 7 6 8 3 38 1 1-23h-34v-6l1-1h41l1 4 1 12v25h-46l-12-3-8-5-6-7-5-12-1-17 2-8 4-8 7-7 10-5z" fill="#9E9E9E"/>
<path transform="translate(1236,533)" d="m0 0h28l9 2 10 6 6 7 4 10 1 11-2 14-6 10-4 5-8 5-6 2-7 1h-23l-9-2-9-5-8-9-4-10-1-7v-14l4-10 9-10 10-5zm2 11-10 3-7 6-5 11v12l5 10 6 5 7 3h32l9-4 7-8 3-8v-8l-4-11-7-7-7-3-6-1z" fill="#9D9D9D"/>
<path transform="translate(1977,533)" d="m0 0h58v11l-57 1-5 5-1 7 3 6 2 1 46 1 8 4 6 9 2 8-2 8-4 6-6 4-9 2h-56v-11l59-1 6-4 1-3v-9l-3-4-3-1-43-1-9-3-7-8-2-4v-10l3-6 7-6z" fill="#BEBABA"/>
<path transform="translate(1074,532)" d="m0 0 6 1 14 14 7 8 13 13 7 8 10 9 4 2v-55h7l4 1v16l-1 17v12l1 23-3 5-4 1-8-7-12-12-9-11-18-18-10-8-1 10v45h-10l-1-1 1-37-1-31z" fill="#BEBBBB"/>
<path transform="translate(679,533)" d="m0 0h64v11l-53 1v49l53 1v11h-64z" fill="#BCB8B8"/>
<path transform="translate(1836,533)" d="m0 0h65v10l-1 1h-53v50l54 1v10l-1 1h-63l-1-1z" fill="#9A9A9A"/>
<path transform="translate(832,533)" d="m0 0h45v10l-1 1-45 1-9 4-6 7-3 10v8l3 9 5 6 7 4 5 1 44 1v10l-1 1h-41l-12-3-9-6-6-8-4-11v-21l4-9 7-8 6-4z" fill="#A0A0A0"/>
<path transform="translate(553,533)" d="m0 0h68v10l-1 1h-28v62h-10l-1-1v-60l-28-1z" fill="#908E8F"/>
<path transform="translate(1355,533)" d="m0 0h10l1 1v22l-1 8v15l1 16h50v10l-1 1h-59l-1-1z" fill="#A3A2A2"/>
<path transform="translate(215,291)" d="m0 0h9l12 4 1 5-1 2 9 1 4 2v4h3l3 4v6h-2l-1 4-2 1v7l-6 2-1 6-5 5-7 2-4 2h-4v2h-2l-2-7 1-2 7-2h3l-1-7 5-3 4-1v-4l-6-1-2-2v-7l1-2-2-1-1-4-2-4h-2v-2l-5-1v-2l-9-4 4-2z" fill="#D8565A"/>
<path transform="translate(997,533)" d="m0 0h11l1 2-1 15v56h-11l1-33-38-1v-7h38l-1-15z" fill="#BDB9B9"/>
<path transform="translate(1503,533)" d="m0 0h28l12 3 8 6 4 9-1 3-7-1v-2l-5-1-8-4-5-1h-24l-14 4-5 2h-4v-5l4-6 8-5z" fill="#928F90"/>
<path transform="translate(1236,533)" d="m0 0h28l9 2 8 5 6 8v5l-3 1-6-3-11-5-6-1h-23l-9 1-10 6h-4l-1-4 3-6 8-6 5-2z" fill="#9A9B9B"/>
<path transform="translate(1977,533)" d="m0 0h58v11l-57 1-5 2-2 2h-7l-1-3 3-5 5-6z" fill="#908D8E"/>
<path transform="translate(2030,591)" d="m0 0 4 1-1 6-3 3h-2l-1 3-9 2h-56v-11h60z" fill="#A0A0A0"/>
<path transform="translate(1762,533)" d="m0 0h10l1 1v19l-1 23 1 16v13l-1 1h-10z" fill="#BCB8B8"/>
<path transform="translate(1836,533)" d="m0 0h65v10l-1 1-54 1-3 4-5-1v-3h-2z" fill="#908D8E"/>
<path transform="translate(832,533)" d="m0 0h45v10l-1 1-45 1-12 5-5 3-4-1v-5l6-8 8-4z" fill="#908D8E"/>
<path transform="translate(937,533)" d="m0 0h11v73h-11v-22l1-7v-10l-1-9z" fill="#BDBABA"/>
<path transform="translate(682,592)" d="m0 0 7 1 1 1 53 1v11h-64v-8z" fill="#A2A2A2"/>
<path transform="translate(1649,533)" d="m0 0h46v10l-1 1-45 1-8 2-6 3-2 2-4-1v-7l8-7 7-3z" fill="#908D8E"/>
<path transform="translate(1070,537)" d="m0 0h2l1 12 5 1 4-1-1 12v45h-10l-1-1 1-37z" fill="#BFBBBB"/>
<path transform="translate(1355,533)" d="m0 0h10l1 1v22l-1 8v15l1 16-3-4-5 1-2 4-1-47z" fill="#BDB9B9"/>
<path transform="translate(591,544)" d="m0 0h1v62h-10l-1-1 1-57 1 2 7-2z" fill="#BEBABA"/>
<path transform="translate(1483,543)" d="m0 0v3l-1 5 11-4 2 1-5 4-5 10-1 4v8l4 10 5 5 5 3-1 2-5-2h-6l3 5 6 4-1 2-8-5-6-7-4-8-2-9v-12l2-8 4-8z" fill="#BEBABA"/>
<path transform="translate(1656,565)" d="m0 0h41l1 4 1 12v13l-3-3h-5l-1 4h-2l1-23h-34v-6z" fill="#C1BDBD"/>
<path transform="translate(1215,544)" d="m0 0 1 2-1 6 8-3 6-4 4 1-8 4-4 5-4 9v12l5 10 5 4 4 2-1 2-7-2h-3l1 5 4 4-5-2-8-9-4-10-1-7v-14l4-10z" fill="#BEBABA"/>
<path transform="translate(1628,545)" d="m0 0h1l1 6 4-1 4-3 5-2 3 1-8 5-4 5-3 9v10l4 10 7 6 5 3-2 1-12-4 2 5 4 5-5-2-7-8-5-12-1-17 2-8 4-8z" fill="#BEBABA"/>
<path transform="translate(1551,543)" d="m0 0 5 5 4 9 1 5v9l-2 13-6 10-5 5-2-1 4-4 1-3h-2v-2l-12 6-7 1h-13l4-2 13-1 8-4 6-7 2-5v-15l-4-8-1-3h2v2l7 1-1-6z" fill="#BEBABA"/>
<path transform="translate(812,543)" d="m0 0v3l-1 1v5l5-1 4-3 2 1-6 7-3 10v8l3 9 5 6 8 5-2 1-5-2h-5v3l6 5-2 1-8-6-6-9-3-9v-21l4-9z" fill="#BDB9B9"/>
<path transform="translate(1281,540)" d="m0 0 6 5 5 10 2 10-1 14-4 10-7 9-2-1 2-2v-3l-7 1-10 2 1-2 9-4 6-7 3-8v-8l-4-11-5-6 4 2 7 2-1-7-4-4z" fill="#BDBABA"/>
<path transform="translate(707,534)" d="m0 0h34l1 2-1 3-5 3h-44l-6-2-2-2v-3z" fill="#908D8E"/>
<path transform="translate(1846,544)" d="m0 0 1 3-1 45-7 1-2 2v-50l1 3h5z" fill="#BCB8B8"/>
<path transform="translate(1494,535)" d="m0 0h3l-2 5 3 2h31l12 2v-2h2l-2-6 5 2 5 4 4 9-1 3-7-1v-2l-5-1-8-4-5-1h-24l-14 4-5 2h-4v-5l4-6z" fill="#9D9D9D"/>
<path transform="translate(1649,533)" d="m0 0h46v10l-1 1-45 1-8 2-6 3-2 2-4-1v-7l8-7 7-3zm10 1-11 1-3 2 2 5h45l1-1v-6l-3-1z" fill="#A0A0A0"/>
<path transform="translate(1233,534)" d="m0 0h30l11 3 2 5h-3v2l-10-1h-32l-4-3 2-4h4z" fill="#908D8E"/>
<path transform="translate(1836,533)" d="m0 0h65v10l-1 1-54 1-3 4-5-1v-3h-2zm30 1-23 1 2 6 6 1h48l1-8z" fill="#A2A2A2"/>
<path transform="translate(832,533)" d="m0 0h19v1l-22 2-5 1-1 5h52v-7l-20-1v-1h22v10l-1 1-45 1-12 5-5 3-4-1v-5l6-8 8-4z" fill="#9F9F9F"/>
<path transform="translate(679,533)" d="m0 0h64v11l-55 1-1 3h-6l-2-3zm28 1-23 1 1 4 2 2 5 1h44l5-3 1-4-1-1z" fill="#A5A4A4"/>
<path transform="translate(1977,533)" d="m0 0h58v2h-56l-6 3 2 3h58l2-2v5l-57 1-5 2-2 2h-7l-1-3 3-5 5-6z" fill="#9C9C9C"/>
<path transform="translate(1074,532)" d="m0 0 6 1 8 8 5 9 1 4-5 1-7-4v-2l-6 2-4-4-1-12z" fill="#9A9A9A"/>
<path transform="translate(1876,597)" d="m0 0h13l9 2-1 4-2 1h-46l-2-2 2-3 6-1z" fill="#908D8E"/>
<path transform="translate(1391,597)" d="m0 0h18l3 1 1 5-2 1h-40l-5-1-1-3 2-2z" fill="#908D8E"/>
<path transform="translate(1968,598)" d="m0 0h41l6 2v4h-41l-8-1z" fill="#908D8E"/>
<path transform="translate(702,565)" d="m0 0h37l1 5-1 2h-36l-1-1z" fill="#C3BFBF"/>
<path transform="translate(725,597)" d="m0 0 13 1 1 4-2 2h-41l-3-2 1-3 6-1z" fill="#908D8E"/>
<path transform="translate(1860,565)" d="m0 0h36l1 6-1 1h-36z" fill="#C2BEBE"/>
<path transform="translate(865,597)" d="m0 0 8 1 2 3v3l-6 1h-13l-17-1-1-3h2l1-2 6-1z" fill="#908D8E"/>
<path transform="translate(1130,589)" d="m0 0h8v2l5 1 2 5v7l-3 3-5-1-10-10 1-6z" fill="#9B9C9C"/>
<path transform="translate(1236,533)" d="m0 0h28l9 2 8 5 6 8v5l-3 1-6-3-11-5-6-1 3-2 3-1 6 2v-2l2-1-1-3-11-3-27-1z" fill="#9C9C9C"/>
<path transform="translate(1663,598)" d="m0 0h18l6 1 6 2 1 3-5 1h-14l-18-1v-4z" fill="#908D8E"/>
<path transform="translate(1541,536)" d="m0 0 5 2 5 4 4 9-1 3-7-1v-2l-5-1-8-4-11-2v-2l13 1 5 1v-2h2z" fill="#9C9C9C"/>
<path transform="translate(937,533)" d="m0 0h11l-1 15-2 6-4 1-3-4-1-6z" fill="#999"/>
<path transform="translate(553,533)" d="m0 0h68v10l-1 1h-28v-1l27-1 1-8h-66l2 7 25 1v2h-28z" fill="#BCB8B8"/>
<path transform="translate(1762,533)" d="m0 0h10v10l-2 9-1 2h-5l-2-11z" fill="#999A9A"/>
<path transform="translate(1357,533)" d="m0 0h8l1 1v9l-4 11-5-1-1-5v-14z" fill="#999A9A"/>
<path transform="translate(997,533)" d="m0 0h11l1 2-4 16-5 1-2-5-1-6z" fill="#9A9A9A"/>
<path transform="translate(1847,595)" d="m0 0h54v10l-1 1h-49v-1l44-1 2-4-1-1-7-1v-2h-42z" fill="#B1AEAE"/>
<path transform="translate(941,589)" d="m0 0 5 1 2 9v7h-11l1-13 1-3z" fill="#999A9A"/>
<path transform="translate(1136,533)" d="m0 0h7l2 1v12l-2 5-3 1-3-1-1-2z" fill="#989999"/>
<path transform="translate(855,533)" d="m0 0h22v10l-1 1h-47l1-2h45v-7l-20-1z" fill="#AAA8A8"/>
<path transform="translate(525,250)" d="m0 0h2l1 26v21h-1l-1-25h-2v8h-1v-25z" fill="#D0464B"/>
<path transform="translate(1074,590)" d="m0 0 4 1 2 5v9h-10l1-8z" fill="#999A9A"/>
<path transform="translate(1765,590)" d="m0 0 5 2 2 3v9l-1 1h-8v-13z" fill="#989999"/>
<path transform="translate(2034,539)" d="m0 0h1v5h-56v-2l54-1z" fill="#A9A7A7"/>
<path transform="translate(1e3 592)" d="m0 0h4l2 7v7h-8l-1-1 1-11z" fill="#989999"/>
<path transform="translate(1780,369)" d="m0 0h2l-1 5-44 1-4 3 2-5 1-1h45z" fill="#CC7C7E"/>
<path transform="translate(1727,387)" d="m0 0 3 3 64 1v2h-68v-4z" fill="#D4696C"/>
<path transform="translate(524,653)" d="m0 0 2 4 1 6v30l-4-1h3l-1-5h-1z" fill="#D75358"/>
<path transform="translate(409,98)" d="m0 0 2 3 13 41-1 2-2-2-9-27-1-5-2-7z" fill="#D56266"/>
<path transform="translate(584,593)" d="m0 0 5 1 2 3v8h-9l1-10z" fill="#989999"/>
<path transform="translate(1511,599)" d="m0 0h13l5 2-1 2-9 1-9-1z" fill="#908D8E"/>
<path transform="translate(553,534)" d="m0 0 2 4 1 3 25 1v2h-28z" fill="#A6A5A5"/>
<path transform="translate(726,596)" d="m0 0h17v9h-7l2-4v-3h-12z" fill="#989999"/>
<path transform="translate(523,247)" d="m0 0 5 1v28h-1v-26h-2l-2 13h-1v-15z" fill="#BF9798"/>
<path transform="translate(1245,599)" d="m0 0h10l5 2v2l-8 1-9-1z" fill="#908D8E"/>
<path transform="translate(702,565)" d="m0 0h23v1l-19 1 4 2v2h5v1h-12l-1-1z" fill="#FEFEFE"/>
<path transform="translate(584,542)" d="m0 0h6l2 2-2 4-3 2h-4l-2-7z" fill="#989999"/>
<path transform="translate(156,705)" d="m0 0h2l2 6 2 1-9 7-1-3z" fill="#D76165"/>
<path transform="translate(2e3 424)" d="m0 0 4 1 2 3h34v2h-35z" fill="#D75A5E"/>
<path transform="translate(1656,422)" d="m0 0 1 3-2 4h26v1h-29l2-5z" fill="#D66063"/>
<path transform="translate(870,596)" d="m0 0h6l1 1v8h-8v-1h6l-2-5-3-1z" fill="#9D9E9E"/>
<path transform="translate(381,512)" d="m0 0 2 1 1 4-7 3-2-1 2-4z" fill="#D9575B"/>
<path transform="translate(1357,535)" d="m0 0h5l1 5-4 2-2-1z" fill="#908D8E"/>
<path transform="translate(381,13)" d="m0 0 2 1 2 9-6-1z" fill="#D55C60"/>
<path transform="translate(426,151)" d="m0 0 2 3 3 12-4-4 1-4h-2l-1-6z" fill="#D56165"/>
<path transform="translate(418,130)" d="m0 0h2l4 12-1 2-2-2-2-6z" fill="#D9575B"/>
</svg>
